<svg id="visual" viewBox="0 0 960 540" width="960" height="540" xmlns="http://www.w3.org/2000/svg" xmlns:xlink="http://www.w3.org/1999/xlink" version="1.1"><path d="M0 66L14.5 70.5C29 75 58 84 87.2 87.5C116.3 91 145.7 89 174.8 80C204 71 233 55 262 56C291 57 320 75 349 82.2C378 89.3 407 85.7 436.2 79.3C465.3 73 494.7 64 523.8 58.7C553 53.3 582 51.7 611 56.2C640 60.7 669 71.3 698 74C727 76.7 756 71.3 785.2 64.2C814.3 57 843.7 48 872.8 44.3C902 40.7 931 42.3 945.5 43.2L960 44L960 0L945.5 0C931 0 902 0 872.8 0C843.7 0 814.3 0 785.2 0C756 0 727 0 698 0C669 0 640 0 611 0C582 0 553 0 523.8 0C494.7 0 465.3 0 436.2 0C407 0 378 0 349 0C320 0 291 0 262 0C233 0 204 0 174.8 0C145.7 0 116.3 0 87.2 0C58 0 29 0 14.5 0L0 0Z" fill="#ffffff"></path><path d="M0 244L14.5 244.8C29 245.7 58 247.3 87.2 241C116.3 234.7 145.7 220.3 174.8 206.8C204 193.3 233 180.7 262 186.2C291 191.7 320 215.3 349 212.7C378 210 407 181 436.2 165.7C465.3 150.3 494.7 148.7 523.8 158.7C553 168.7 582 190.3 611 199.3C640 208.3 669 204.7 698 201.8C727 199 756 197 785.2 183.5C814.3 170 843.7 145 872.8 133.3C902 121.7 931 123.3 945.5 124.2L960 125L960 42L945.5 41.2C931 40.3 902 38.7 872.8 42.3C843.7 46 814.3 55 785.2 62.2C756 69.3 727 74.7 698 72C669 69.3 640 58.7 611 54.2C582 49.7 553 51.3 523.8 56.7C494.7 62 465.3 71 436.2 77.3C407 83.7 378 87.3 349 80.2C320 73 291 55 262 54C233 53 204 69 174.8 78C145.7 87 116.3 89 87.2 85.5C58 82 29 73 14.5 68.5L0 64Z" fill="#e6f0fd"></path><path d="M0 293L14.5 296.5C29 300 58 307 87.2 305.2C116.3 303.3 145.7 292.7 174.8 281.8C204 271 233 260 262 266.3C291 272.7 320 296.3 349 293.7C378 291 407 262 436.2 245.7C465.3 229.3 494.7 225.7 523.8 233.8C553 242 582 262 611 272.8C640 283.7 669 285.3 698 282.7C727 280 756 273 785.2 259.5C814.3 246 843.7 226 872.8 217C902 208 931 210 945.5 211L960 212L960 123L945.5 122.2C931 121.3 902 119.7 872.8 131.3C843.7 143 814.3 168 785.2 181.5C756 195 727 197 698 199.8C669 202.7 640 206.3 611 197.3C582 188.3 553 166.7 523.8 156.7C494.7 146.7 465.3 148.3 436.2 163.7C407 179 378 208 349 210.7C320 213.3 291 189.7 262 184.2C233 178.7 204 191.3 174.8 204.8C145.7 218.3 116.3 232.7 87.2 239C58 245.3 29 243.7 14.5 242.8L0 242Z" fill="#cce1fa"></path><path d="M0 384L14.5 392.2C29 400.3 58 416.7 87.2 424.8C116.3 433 145.7 433 174.8 432.2C204 431.3 233 429.7 262 429.7C291 429.7 320 431.3 349 426.8C378 422.3 407 411.7 436.2 409.8C465.3 408 494.7 415 523.8 417.7C553 420.3 582 418.7 611 410.7C640 402.7 669 388.3 698 382C727 375.7 756 377.3 785.2 379C814.3 380.7 843.7 382.3 872.8 387.7C902 393 931 402 945.5 406.5L960 411L960 210L945.5 209C931 208 902 206 872.8 215C843.7 224 814.3 244 785.2 257.5C756 271 727 278 698 280.7C669 283.3 640 281.7 611 270.8C582 260 553 240 523.8 231.8C494.7 223.7 465.3 227.3 436.2 243.7C407 260 378 289 349 291.7C320 294.3 291 270.7 262 264.3C233 258 204 269 174.8 279.8C145.7 290.7 116.3 301.3 87.2 303.2C58 305 29 298 14.5 294.5L0 291Z" fill="#b1d2f8"></path><path d="M0 417L14.5 425C29 433 58 449 87.2 456.2C116.3 463.3 145.7 461.7 174.8 463.5C204 465.3 233 470.7 262 474.3C291 478 320 480 349 473.7C378 467.3 407 452.7 436.2 451.7C465.3 450.7 494.7 463.3 523.8 464.3C553 465.3 582 454.7 611 444.8C640 435 669 426 698 419.7C727 413.3 756 409.7 785.2 412.3C814.3 415 843.7 424 872.8 431.2C902 438.3 931 443.7 945.5 446.3L960 449L960 409L945.5 404.5C931 400 902 391 872.8 385.7C843.7 380.3 814.3 378.7 785.2 377C756 375.3 727 373.7 698 380C669 386.3 640 400.7 611 408.7C582 416.7 553 418.3 523.8 415.7C494.7 413 465.3 406 436.2 407.8C407 409.7 378 420.3 349 424.8C320 429.3 291 427.7 262 427.7C233 427.7 204 429.3 174.8 430.2C145.7 431 116.3 431 87.2 422.8C58 414.7 29 398.3 14.5 390.2L0 382Z" fill="#94c3f5"></path><path d="M0 471L14.5 474.5C29 478 58 485 87.2 491.3C116.3 497.7 145.7 503.3 174.8 506.2C204 509 233 509 262 509C291 509 320 509 349 503.5C378 498 407 487 436.2 486C465.3 485 494.7 494 523.8 495C553 496 582 489 611 483.7C640 478.3 669 474.7 698 472.8C727 471 756 471 785.2 474.5C814.3 478 843.7 485 872.8 485.8C902 486.7 931 481.3 945.5 478.7L960 476L960 447L945.5 444.3C931 441.7 902 436.3 872.8 429.2C843.7 422 814.3 413 785.2 410.3C756 407.7 727 411.3 698 417.7C669 424 640 433 611 442.8C582 452.7 553 463.3 523.8 462.3C494.7 461.3 465.3 448.7 436.2 449.7C407 450.7 378 465.3 349 471.7C320 478 291 476 262 472.3C233 468.7 204 463.3 174.8 461.5C145.7 459.7 116.3 461.3 87.2 454.2C58 447 29 431 14.5 423L0 415Z" fill="#72b5f3"></path><path d="M0 541L14.5 541C29 541 58 541 87.2 541C116.3 541 145.7 541 174.8 541C204 541 233 541 262 541C291 541 320 541 349 541C378 541 407 541 436.2 541C465.3 541 494.7 541 523.8 541C553 541 582 541 611 541C640 541 669 541 698 541C727 541 756 541 785.2 541C814.3 541 843.7 541 872.8 541C902 541 931 541 945.5 541L960 541L960 474L945.5 476.7C931 479.3 902 484.7 872.8 483.8C843.7 483 814.3 476 785.2 472.5C756 469 727 469 698 470.8C669 472.7 640 476.3 611 481.7C582 487 553 494 523.8 493C494.7 492 465.3 483 436.2 484C407 485 378 496 349 501.5C320 507 291 507 262 507C233 507 204 507 174.8 504.2C145.7 501.3 116.3 495.7 87.2 489.3C58 483 29 476 14.5 472.5L0 469Z" fill="#47a7f0"></path></svg>